<?xml version="1.0" encoding="UTF-8"?>
<svg xmlns="http://www.w3.org/2000/svg" xmlns:xlink="http://www.w3.org/1999/xlink" viewBox="0 0 100 100" width="100px" height="100px">
<g id="surface9295918">
<path style=" stroke:none;fill-rule:nonzero;fill:rgb(40.000001%,40.000001%,40.000001%);fill-opacity:1;" d="M 4 21.0625 C 1.921875 21.0625 0.210938 22.734375 0 24.8125 L 0 58.125 C 0.210938 68.742188 8.765625 77.25 19.375 77.25 C 26.867188 77.25 33.3125 73.054688 36.4375 66.8125 C 39.765625 72.84375 46.21875 77.25 53.5 77.25 C 64.109375 77.25 72.875 68.484375 72.875 57.875 C 73.078125 47.054688 64.304688 38.3125 53.6875 38.3125 C 46.203125 38.3125 39.742188 42.507812 36.625 48.75 C 33.296875 42.71875 26.84375 38.3125 19.5625 38.3125 C 15.195312 38.3125 11.265625 39.8125 7.9375 42.3125 L 7.9375 24.8125 C 7.9375 22.734375 6.289062 21.0625 4 21.0625 Z M 95.5625 38.1875 C 94.578125 38.289062 93.6875 38.726562 93.0625 39.5625 L 84.5 51 L 75.75 39.8125 C 74.5 38.148438 72.039062 37.734375 70.375 39.1875 C 68.710938 40.4375 68.25 42.898438 69.5 44.5625 L 79.5 57.875 L 69.5 71 C 68.25 72.664062 68.710938 75.132812 70.375 76.375 C 72.039062 77.625 74.5 77.414062 75.75 75.75 L 84.3125 64.3125 L 92.8125 75.75 C 94.0625 77.414062 96.585938 77.828125 98.25 76.375 C 100.117188 75.132812 100.289062 72.875 99.25 71 L 89.3125 57.6875 L 99.25 44.375 C 100.5 42.710938 100.101562 40.1875 98.4375 38.9375 C 97.609375 38.3125 96.546875 38.085938 95.5625 38.1875 Z M 19.375 46 C 25.828125 46 31 51.234375 31 57.6875 C 31 64.140625 25.828125 69.3125 19.375 69.3125 C 12.929688 69.3125 7.75 64.140625 7.75 57.6875 C 7.75 51.234375 12.929688 46 19.375 46 Z M 53.6875 46 C 60.140625 46 65.375 51.234375 65.375 57.6875 C 65.375 64.140625 60.140625 69.3125 53.6875 69.3125 C 47.242188 69.3125 42.0625 64.140625 42.0625 57.6875 C 42.0625 51.234375 47.242188 46 53.6875 46 Z M 53.6875 46 "/>
</g>
</svg>
