<?xml version="1.0" encoding="UTF-8"?>
<svg xmlns="http://www.w3.org/2000/svg" xmlns:xlink="http://www.w3.org/1999/xlink" viewBox="0 0 100 100" width="100px" height="100px">
<g id="surface9189724">
<path style=" stroke:none;fill-rule:nonzero;fill:rgb(40.000001%,40.000001%,40.000001%);fill-opacity:1;" d="M 64.40625 19.90625 C 53.148438 19.90625 42.148438 25.503906 35.503906 34.933594 L 35.507812 34.933594 L 35.183594 35.386719 C 34.75 35.996094 34.695312 36.796875 35.039062 37.460938 C 35.382812 38.125 36.070312 38.542969 36.816406 38.542969 L 44.714844 38.542969 C 45.269531 38.542969 45.796875 38.3125 46.175781 37.910156 L 46.238281 37.839844 L 46.261719 37.816406 C 51.273438 32.65625 57.742188 29.96875 64.40625 29.96875 C 71.070312 29.96875 77.539062 32.65625 82.558594 37.816406 L 82.648438 37.910156 C 83.027344 38.3125 83.554688 38.542969 84.109375 38.542969 L 92 38.542969 C 92.746094 38.542969 93.429688 38.128906 93.773438 37.46875 C 94.117188 36.8125 94.070312 36.015625 93.644531 35.402344 L 93.328125 34.945312 C 93.324219 34.941406 93.320312 34.9375 93.316406 34.933594 C 86.660156 25.503906 75.667969 19.90625 64.40625 19.90625 Z M 64.40625 23.90625 C 73.136719 23.90625 81.632812 27.9375 87.597656 34.542969 L 84.976562 34.542969 L 85.453125 35.054688 C 79.710938 29.140625 72.164062 25.96875 64.40625 25.96875 C 56.652344 25.96875 49.113281 29.136719 43.378906 35.046875 L 43.847656 34.542969 L 41.222656 34.542969 C 47.179688 27.9375 55.675781 23.90625 64.40625 23.90625 Z M 66.785156 33.644531 L 60.070312 37.238281 L 60.070312 44.050781 L 54.28125 44.050781 L 54.28125 50.347656 L 60.070312 50.347656 L 60.070312 69.21875 C 60.070312 74.359375 63.117188 77.875 67.664062 77.964844 C 70.753906 78.023438 72.613281 77.105469 73.746094 76.433594 L 73.8125 76.382812 L 75.460938 69.9375 L 75.054688 70.1875 C 73.226562 71.300781 71.523438 71.859375 69.996094 71.859375 C 67.78125 71.859375 66.785156 70.691406 66.785156 68.089844 L 66.785156 50.347656 L 73.761719 50.347656 L 73.761719 44.050781 L 66.785156 44.050781 Z M 25.503906 43.476562 C 20.730469 43.476562 16.367188 45.082031 13.222656 47.980469 C 9.804688 51.113281 8 55.539062 8 60.777344 C 8 66.011719 9.804688 70.449219 13.21875 73.585938 C 16.363281 76.496094 20.726562 78.09375 25.5 78.09375 C 30.257812 78.09375 34.128906 76.242188 37.351562 72.429688 L 37.453125 72.308594 L 33.578125 67.621094 L 33.429688 67.769531 C 31.007812 70.238281 28.203125 71.542969 25.3125 71.542969 C 19.28125 71.542969 14.90625 67.023438 14.90625 60.78125 C 14.90625 54.550781 19.28125 50.023438 25.3125 50.023438 C 28.199219 50.023438 31.007812 51.335938 33.429688 53.808594 L 33.578125 53.960938 L 37.457031 49.273438 L 37.351562 49.144531 C 34.128906 45.335938 30.261719 43.476562 25.503906 43.476562 Z M 41.371094 44.019531 L 41.371094 77.457031 L 48.222656 77.457031 L 48.222656 44.019531 Z M 80.726562 44.019531 L 80.726562 77.457031 L 87.582031 77.457031 L 87.582031 44.019531 Z M 80.726562 44.019531 "/>
</g>
</svg>
