<svg xmlns="http://www.w3.org/2000/svg" width="100%" height="100%" xmlns:xlink="http://www.w3.org/1999/xlink" viewBox="0 0 288 288" preserveAspectRatio="xMidYMid meet" ><g style="fill:rgb(250,226,226);fill-rule:evenodd;stroke:rgb(250,226,226);stroke-width:0.1" id="l1"><path d="M0,0h288v288h-288z"/><path d="M100,113h8l2,1l1,1v1l-1,2h-2l-1-1v-1c-5,0-5,1-6,2h-1c0,6,1,6,2,7v1c5,0,5-1,6-2h1l2,2v1l-2,2l-4,1h-1l-4-1l-4-4v-8zm16,0h8l2,1l2,2l1,2v6l-1,2l-3,3l-4,1h-1l-4-1l-4-4v-8zm15,0h5l1,1l3,6v1l1-1c1,0,1-2,2-5l1-2h6v16h-4c0-9-4-1-7-1l-4-8v9h-4z"/><path d="M153,113h3v16h-3zm6,0h4l3,3c0,2,1,2,4,5q0,2,1-8h4v16h-5c0-2-1-2-3-4c0-2-1-2-3-4q0-1-1,8h-4zm23,0h8l1,1v2l-1,1c-8,0-8,1-9,7h1l1,1v1h5v-5h4v7l-2,1l-4,1h-1l-4-1l-3-3l-1-2v-6l1-2l2-2z"/><path d="M110,141h7l2,1v2l-1,1c-7,0-7,2-5,2l4,1l2,2l1,2v2l-1,2l-1,1l-2,1h-5l-4-2v-2l1-1h2l3,1v1l1-1h2c0-2-2-2-5-3l-2-1l-2-2v-4zm16,0h7l2,1l2,2l1,2v7l-1,1h-1v2l-4,2h-5l-4-2c0-2-1-2-2-3v-7l1-2l2-2zm18,0h8l4,4l1,3v3l-1,3l-3,3l-2,1h-5l-3-1l-3-3l-1-3v-3l1-3z"/><path d="M159,141h4c0,2,1,2,3,4c0,2,1,2,3,4q0,2,1-8h4v17h-4l-1-1c0-2-1-2-3-4c0-2-1-2-2-3q0-1-1,8h-4zm18,0h4v9l-1,3h-2l-1-1zm0,13h4v3l-1,1h-2l-1-1z"/></g><g style="fill:rgb(236,67,68);fill-rule:evenodd;stroke:rgb(236,67,68);stroke-width:0.1" id="l2"><path d="M77,78h8l7,1v1h8v1h14l6,1v1h13l7,1v1h15l7,1v1h14l7,1c0,1,8,1,20,2l8,1l3,1l1,1v1h2l3,3l1,2l2,8c0,7,1,7,2,10l1,4c0,7,1,7,2,10c0,6,1,6,2,10c0,6,1,6,2,10c0,6,1,6,3,14v9l-2,4l-4,4c-2,0-2,1-3,2c-2,0-2,1-3,2c-2,0-2,1-3,2c-3,0-3,1-4,2c-2,0-2,1-4,3c-2,0-2,1-3,2c-2,0-2,1-3,2c-2,0-2,1-3,2c-2,0-2,1-3,2c-3,0-3,1-4,2c-2,0-2,1-4,3c-2,0-2,1-3,2c-2,0-2,1-3,2h-2v-4l1-1h1v-2l1-1h1v-2l1-1h1v-2l1-1h1v-2l1-2l2-2c4,0,4-1,6-2l6-2c2,0,2-1-26-1v1l-14,1c-22,0-22,1-36,2l-15,1c-24,0-24,1-36,2h-18l-2-1l-6-6l-1-5v-4l1-7l1-5h1v-8l1-6h1v-7l1-6h1v-7l2-12h1v-7l1-5h1v-8l2-12l7-7zm31,64v1l-1,5h1l1,1v1h2v1h3l1,1v2l-1,1h-1l-3-1l-2-2v1l-1,3h2l2,1v1h5v-1l2-1h1v-2l1-3h-1l-2-2v-1h-2v-1h-4v-2l1-1h3l2,1l1,1v-1l1-3h-2l-2-1v-1h-4v1l-2,1zm85-15v-6h-5v5h-5l-2-2v-6l2-2h5l2,2v-1l1-1h1v-2h-2l-3-1v-1h-3v1l-2,1h-2v1l-1,1h-1v2l-1,2h-1l2,4v3h1l4,2v1h6v-1l1-1l2-1zm-31-14h-3l1,14v1l-1,2l4-1h1v-8h1v2h1l4,4l1,2v1h4v-17h-4v10h-1v-2h-1l-1-1v-2h-1l-1-1v-2h-1l-1-1v-1zm-64,15h2l1,1v1h6v-1h2v-1l1-1h1l-1-2v-1h-2v1l-1,1h-5l-2-2v-6l1-1h7l2,1v-2l1-1h-1l-4-2v-1l-3,1h-3v1h-2v1l-1,2h-1v3l-1,2h1v3h1l1,2zm23,25h1l1,1v2h2l2,1v1h5v-1l2-1h2v-2l1-1h1v-2h1l1,1v2h1l2,2v1h3v1l5-1h3v-1l1-2l1-1h1v-7h-1l-1-1l-1-2v-1h-2l-2-1v-1h-4v1l-2,1h-2v1l-2,4l-1,1h-1l-1-2v-2h-1l-1-1v-1h-2l-4-2v1l-3,1h-2v1l-1,1h-1v2l-1,2h-1l1,3zm36-40h-5l1,16v1l3-1h1zm-45,12h1l1,2v1h2l2,1v1h5v-1l4-2h1v-3l2-4h-1l-1-2v-2h-1l-1-1v-1h-2l-2-1v-1h-3v1h-3v1l-2,1h-1v2l-1,3h-1l1,2zm46,33h5v-9h1l2,2v2h1l2,2l1,2v1h5v-17h-5v10h-1l-1-2v-2h-1l-4-4v-2h-5zm-8-45h-6v2l-1,3l-1,2l-1,1h-1l-1-1l-3-6v-1h-5v17h4v-10h1l2,4l1,2v2h3v-2l2-4l1-2h1v10h4zm26,44h1l3,1v-1l1-3h-4v1zm1-5h1l2,1v-1l1-11h-5l1,6z"/><path d="M118,116h5l2,2v6l-2,2h-5l-2-2v-6zm10,28h3l2,1l1,1v6l-2,2l-2,1h-1l-3-1l-1-2v-5zm18,0h4l3,3v4l-1,2l-1,1h-5l-2-2v-6z"/></g><g style="fill:rgb(243,135,134);fill-rule:evenodd;stroke:rgb(243,135,134);stroke-width:0.1" id="l3"><path d="M92,79h2v1h-2zm12,1h2v1h-2zm18,2h4v1h-4zm11,1h2v1h-2zm9,1h4v1h-4zm20,2h3v1h-3zm21,2h2v1h-2zm12,1h2v1h-2zm-129,1h1v2h-1zm137,0h2v1h-2zm8,1h2v1h-2zm10,10h1v2h-1zm-157,1h1v2h-1zm-1,7h1v2h-1zm40,3h3v1h-3zm16,0h3v1h-3zm65,0h3v1h-3zm-32,1h1v3h-1zm4,0h1v16l-1,1h-3l-1-1v-1h1l3,1zm-58,1h1v1l-1,1h-1v-1zm16,0h1v1l-1,1h-1v-1zm77,0h1v2h-1zm-25,3h1l1,1v1h-1l-1-1z"/><path d="M95,120h1v2h-1zm16,0h1v2h-1zm52,0h1v9l-1,1h-4v-1h4zm29,1h1v6h-1zm-131,1h1v2h-1zm104,0h1l1,1v1h-1l-1-1zm23,1h1v2h-1zm-79,1h1l1,1v1h-1l-1-1zm-12,2h1l1,1v1h-1l-1-1zm16,0h1l1,1v1h-1l-1-1zm65,0h1l1,1v1h-1l-1-1zm48,0h1v2h-1zm-125,3h3v1h-3zm4,0h2v1h-2zm13,0h2v1h-2zm3,0h2v1h-2zm10,0h4v1h-4zm15,0h4v1h-4zm25,0h4v1h-4zm12,0h2v1h-2zm3,0h3v1h-3zm-127,6h1v2h-1zm169,0h1v2h-1zm-119,6h1v1l-2,2h-1v-1z"/><path d="M176,141h1v4h-1zm-34,1h1v1l-1,1h-1v-1zm11,0h1l1,1v1h-1l-1-1zm-35,2h1v1l-1,1h-1v-1zm112,1h1v2h-1zm-74,1h1v2h-1zm-99,1h1v3h-1zm56,0h2v1h-2zm67,3h1v2h-1zm-72,2h1v1l-1,1h-1v-1zm7,0h1v2h-1zm18,0h1v1l-1,1h-1v-1zm14,2h2v1h-2zm85,1h1v2h-1zm-177,5h1v2h-1zm130,25h7v1h-7zm-130,1h1l3,3v1h-1l-3-3zm114,0h3v1h-3zm-18,1h5v1h-5zm-20,1h4v1h-4zm-15,1h3v1h-3zm-22,1h5v1h-5zm-14,1h3v1h-3z"/></g><g style="fill:rgb(240,100,99);fill-rule:evenodd;stroke:rgb(240,100,99);stroke-width:0.1" id="l4"><path d="M72,80h1v1l-3,3h-1v-1zm28,0h4v1h-4zm20,2h2v1h-2zm20,2h2v1h-2zm51,5h4v1h-4zm23,3h1l1,1v1h-1l-1-1zm-149,4h1v2h-1zm-1,8h1v2h-1zm159,7h1v3h-1zm-60,2h1l2,2v1h-1l-2-2zm-101,2h1v3h-1zm40,1h5v1h-5zm50,0h1v12h-1zm-23,4h1v2h-1zm47,0h1v2h-1zm-116,8h1v2h-1zm51,12h4v1h-4zm18,0h2v1h-2zm17,0h4v1h-4zm-88,1h1v2h-1zm100,0h1v17h-1z"/><path d="M174,141h1v17h-1zm-48,4h1v1l-1,1h-1v-1zm50,0h1v2h-1zm-10,1h1l1,1v1h-1l-1-1zm-27,1h1v5h-1l-1-1v-3zm4,0h1c0,5,1,5,2,6v1h-1l-2-2zm-23,1h1v3l-1,1h-1v-1zm36,3h1v2h-1zm-100,3h1v2h-1zm98,1h1v1l-1,1h-1v-1zm22,0h1l1,2v1h-1l-1-1zm-121,7h1v2h-1zm-1,5h1v2h-1zm-1,6h1v3h-1zm0,7h1v3h-1zm128,5h4v1h-4zm-14,1h2v1h-2zm-22,1h6v1h-6zm72,1h1v1l-1,1h-1v-1z"/><path d="M92,190h2v1h-2zm122,0h1v1l-1,1h-1v-1zm-23,5h1v1l-1,1h-1v-1zm-2,3h1v1l-1,1h-1v-1zm-2,3h1v1l-1,1h-1v-1zm10,0h1v1l-1,1h-1v-1zm-3,2h1v1l-1,1h-1v-1zm-9,1h1v1l-1,1h-1v-1zm-2,3h1v2h-1z"/></g><g style="fill:rgb(136,44,43);fill-rule:evenodd;stroke:rgb(136,44,43);stroke-width:0.1" id="l5"><path d="M198,185h7v1c-3,0-3,1-5,2h-3v-2z"/></g><g style="fill:rgb(208,62,64);fill-rule:evenodd;stroke:rgb(208,62,64);stroke-width:0.1" id="l6"><path d="M207,185h2v1l-2,1h-2v-1zm-5,2h2v1h-2zm-3,1h2v1l-2,1h-4v-1z"/></g><g style="fill:rgb(183,54,52);fill-rule:evenodd;stroke:rgb(183,54,52);stroke-width:0.1" id="l7"><path d="M205,185h2v1l-2,1l-3,1h-2v-1l2-1zm-9,3h3v1h-3z"/></g><g style="fill:rgb(244,164,156);fill-rule:evenodd;stroke:rgb(244,164,156);stroke-width:0.1" id="l8"><path d="M159,114h1v3h-1zm31,2h1v1l-1,1h-1v-1z"/></g><g style="fill:rgb(242,107,116);fill-rule:evenodd;stroke:rgb(242,107,116);stroke-width:0.1" id="l9"><path d="M127,126h1v1l-1,1h-1v-1z"/></g></svg>