<?xml version="1.0" encoding="UTF-8"?>
<svg xmlns="http://www.w3.org/2000/svg" xmlns:xlink="http://www.w3.org/1999/xlink" viewBox="0 0 32 32" width="32px" height="32px">
<g id="surface6777994">
<path style=" stroke:none;fill-rule:nonzero;fill:rgb(100%,100%,100%);fill-opacity:1;" d="M 16 32 C 7.164062 32 0 24.835938 0 16 C 0 7.164062 7.164062 0 16 0 C 24.835938 0 32 7.164062 32 16 C 32 24.835938 24.835938 32 16 32 Z M 16 32 "/>
<path style=" stroke:none;fill-rule:nonzero;fill:rgb(0%,0%,0%);fill-opacity:1;" d="M 18.503906 4.800781 C 15.347656 4.800781 13.5 6.464844 13.5 10.261719 L 13.5 13.601562 L 9.5 13.601562 L 9.5 17.601562 L 13.5 17.601562 L 13.5 27.199219 L 17.5 27.199219 L 17.5 17.601562 L 20.699219 17.601562 L 21.5 13.601562 L 17.5 13.601562 L 17.5 10.9375 C 17.5 9.507812 17.964844 8.800781 19.308594 8.800781 L 21.5 8.800781 L 21.5 4.964844 C 21.121094 4.914062 20.015625 4.800781 18.503906 4.800781 Z M 18.503906 4.800781 "/>
</g>
</svg>
