<?xml version="1.0" encoding="UTF-8"?>
<svg xmlns="http://www.w3.org/2000/svg" xmlns:xlink="http://www.w3.org/1999/xlink" viewBox="0 0 100 100" width="100px" height="100px">
<g id="surface9200218">
<path style=" stroke:none;fill-rule:nonzero;fill:rgb(40.000001%,40.000001%,40.000001%);fill-opacity:1;" d="M 50 34.375 L 50 46.714844 L 49.75 46.714844 C 48.25 44.917969 46.390625 44.300781 44.21875 44.300781 C 39.78125 44.300781 36.4375 47.46875 35.265625 51.636719 C 32.453125 41.925781 20.046875 42.21875 16.21875 49.347656 L 16.21875 45.390625 L 7.652344 45.390625 L 7.652344 41.105469 L 17.027344 41.105469 L 17.027344 34.394531 L 0 34.394531 L 0 64.527344 L 7.652344 64.527344 L 7.652344 51.863281 L 15.296875 51.863281 C 15.0625 52.792969 14.933594 53.792969 14.933594 54.839844 C 14.933594 66.785156 30.964844 69.773438 35.277344 58.710938 L 28.71875 58.710938 C 26.421875 62.125 21.5625 60.164062 21.5625 56.324219 L 34.925781 56.324219 C 35.503906 61.308594 39.203125 65.625 44.3125 65.625 C 46.515625 65.625 48.535156 64.496094 49.769531 62.585938 L 49.839844 62.585938 L 49.839844 64.527344 L 83 64.527344 L 86.449219 60.441406 L 89.933594 64.527344 L 100 64.527344 L 91.566406 54.640625 L 99.890625 44.847656 L 90.144531 44.847656 L 86.75 48.90625 L 83.234375 44.855469 L 64.683594 44.855469 L 64.683594 42.238281 L 73.457031 42.238281 L 73.457031 34.375 Z M 57.203125 35.832031 L 72.046875 35.832031 L 72.046875 40.765625 L 63.28125 40.765625 L 63.28125 46.308594 L 71.953125 46.308594 L 71.953125 50.898438 L 63.191406 50.898438 L 63.191406 58.210938 L 71.953125 58.210938 L 71.953125 63.042969 L 57.203125 63.042969 Z M 73.546875 45.359375 L 81.46875 54.675781 L 73.546875 63.988281 L 73.546875 56.535156 L 64.78125 56.535156 L 64.78125 52.550781 L 73.546875 52.550781 Z M 76.402344 46.308594 L 82.609375 46.308594 L 86.765625 51.09375 L 90.765625 46.308594 L 96.785156 46.308594 L 89.683594 54.640625 L 96.875 63.042969 L 90.546875 63.042969 L 86.4375 58.222656 L 82.359375 63.042969 L 76.402344 63.042969 L 83.53125 54.675781 Z M 25.476562 48.75 C 27.078125 48.761719 28.652344 49.835938 29.027344 51.929688 L 21.765625 51.929688 C 22.242188 49.777344 23.871094 48.734375 25.476562 48.75 Z M 45.734375 49.660156 C 50.828125 49.660156 51.125 59.925781 45.734375 59.925781 C 40.328125 59.925781 40.421875 49.660156 45.734375 49.660156 Z M 45.734375 49.660156 "/>
</g>
</svg>
