<?xml version="1.0" encoding="UTF-8"?>
<svg xmlns="http://www.w3.org/2000/svg" xmlns:xlink="http://www.w3.org/1999/xlink" viewBox="0 0 100 100" width="100px" height="100px">
<g id="surface9266825">
<path style=" stroke:none;fill-rule:nonzero;fill:rgb(80.000001%,80.000001%,80.000001%);fill-opacity:1;" d="M 39.355469 66.667969 L 43.75 66.667969 L 43.75 83.332031 C 43.75 85.625 41.875 87.5 39.582031 87.5 L 31.25 87.5 C 28.957031 87.5 27.082031 85.625 27.082031 83.332031 L 27.082031 66.667969 L 10.1875 66.667969 C 7.019531 66.667969 5.019531 63.25 6.542969 60.480469 L 31.769531 14.917969 C 33.355469 12.0625 37.480469 12.0625 39.0625 14.917969 L 49.167969 35.207031 L 35.707031 60.480469 C 34.1875 63.25 36.1875 66.667969 39.355469 66.667969 Z M 39.355469 66.667969 "/>
<path style=" stroke:none;fill-rule:nonzero;fill:rgb(40.000001%,40.000001%,40.000001%);fill-opacity:1;" d="M 89.8125 66.667969 L 72.917969 66.667969 L 72.917969 83.332031 C 72.917969 85.625 71.042969 87.5 68.75 87.5 L 60.417969 87.5 C 58.125 87.5 56.25 85.625 56.25 83.332031 L 56.25 66.667969 L 60.644531 66.667969 C 63.8125 66.667969 65.8125 63.25 64.292969 60.480469 L 50.625 35.207031 L 60.9375 14.917969 C 62.519531 12.0625 66.644531 12.0625 68.230469 14.917969 L 93.457031 60.480469 C 94.980469 63.25 92.980469 66.667969 89.8125 66.667969 Z M 89.8125 66.667969 "/>
<path style=" stroke:none;fill-rule:nonzero;fill:rgb(40.000001%,40.000001%,40.000001%);fill-opacity:1;" d="M 28.617188 97.820312 L 28.617188 100.085938 L 20.371094 100.085938 L 20.371094 87.0625 L 22.917969 87.0625 L 22.917969 97.820312 Z M 30.082031 100.085938 L 30.082031 90.785156 L 32.5 90.785156 L 32.5 100.085938 Z M 29.734375 88.164062 C 29.734375 87.800781 29.863281 87.496094 30.128906 87.238281 C 30.394531 86.988281 30.765625 86.859375 31.238281 86.859375 C 31.707031 86.859375 32.089844 86.988281 32.382812 87.238281 C 32.675781 87.496094 32.820312 87.800781 32.820312 88.164062 C 32.820312 88.523438 32.675781 88.824219 32.382812 89.0625 C 32.089844 89.304688 31.707031 89.425781 31.238281 89.425781 C 30.765625 89.425781 30.394531 89.304688 30.128906 89.0625 C 29.863281 88.824219 29.734375 88.523438 29.734375 88.164062 Z M 42.996094 100.085938 L 40.574219 100.085938 L 40.574219 94.800781 C 40.574219 94.046875 40.46875 93.5 40.25 93.167969 C 40.03125 92.832031 39.664062 92.664062 39.144531 92.664062 C 38.683594 92.664062 38.296875 92.796875 37.984375 93.0625 C 37.664062 93.332031 37.4375 93.664062 37.300781 94.058594 L 37.300781 100.085938 L 34.882812 100.085938 L 34.882812 90.785156 L 36.800781 90.785156 L 37.082031 92.011719 L 37.152344 92.011719 C 37.4375 91.617188 37.816406 91.269531 38.289062 90.972656 C 38.757812 90.671875 39.367188 90.523438 40.109375 90.523438 C 40.570312 90.523438 40.980469 90.585938 41.335938 90.710938 C 41.699219 90.832031 42 91.039062 42.25 91.324219 C 42.5 91.609375 42.683594 91.996094 42.808594 92.488281 C 42.933594 92.976562 42.996094 93.582031 42.996094 94.300781 Z M 50.359375 100.085938 L 48.09375 96.238281 L 47.441406 96.238281 L 47.441406 100.085938 L 45.023438 100.085938 L 45.023438 87.0625 L 47.441406 87.0625 L 47.441406 94.75 L 48 94.488281 L 50.121094 90.785156 L 52.777344 90.785156 L 50.546875 94.320312 L 49.597656 95.027344 L 50.621094 95.75 L 53.132812 100.085938 Z M 53.191406 92.832031 L 53.191406 90.785156 L 54.476562 90.785156 L 54.476562 89.035156 L 56.894531 88.347656 L 56.894531 90.785156 L 59.164062 90.785156 L 59.164062 92.832031 L 56.894531 92.832031 L 56.894531 96.402344 C 56.894531 97.046875 56.960938 97.511719 57.085938 97.789062 C 57.21875 98.070312 57.464844 98.210938 57.824219 98.210938 C 58.074219 98.210938 58.285156 98.183594 58.464844 98.132812 C 58.644531 98.082031 58.84375 98.007812 59.070312 97.914062 L 59.5 99.773438 C 59.164062 99.933594 58.769531 100.066406 58.324219 100.179688 C 57.878906 100.292969 57.425781 100.347656 56.964844 100.347656 C 56.113281 100.347656 55.484375 100.128906 55.082031 99.6875 C 54.679688 99.25 54.476562 98.523438 54.476562 97.515625 L 54.476562 92.832031 Z M 66.105469 90.785156 L 65.785156 93.050781 C 65.402344 92.917969 65.054688 92.847656 64.746094 92.847656 C 64.308594 92.847656 63.949219 92.964844 63.65625 93.191406 C 63.367188 93.425781 63.171875 93.71875 63.070312 94.074219 L 63.070312 100.085938 L 60.652344 100.085938 L 60.652344 90.785156 L 62.527344 90.785156 L 62.808594 92.011719 L 62.882812 92.011719 C 63.09375 91.554688 63.378906 91.203125 63.738281 90.953125 C 64.097656 90.707031 64.519531 90.582031 65.003906 90.582031 C 65.328125 90.582031 65.695312 90.648438 66.105469 90.785156 Z M 73.824219 97.703125 L 74.621094 99.285156 C 74.25 99.582031 73.746094 99.835938 73.105469 100.039062 C 72.46875 100.246094 71.789062 100.347656 71.070312 100.347656 C 69.570312 100.347656 68.472656 99.910156 67.777344 99.035156 C 67.082031 98.164062 66.734375 96.964844 66.734375 95.4375 C 66.734375 93.800781 67.125 92.570312 67.90625 91.75 C 68.691406 90.933594 69.785156 90.523438 71.199219 90.523438 C 71.671875 90.523438 72.128906 90.585938 72.574219 90.710938 C 73.019531 90.832031 73.417969 91.039062 73.765625 91.324219 C 74.117188 91.609375 74.394531 91.992188 74.605469 92.476562 C 74.8125 92.960938 74.917969 93.5625 74.917969 94.285156 C 74.917969 94.542969 74.902344 94.824219 74.871094 95.121094 C 74.839844 95.417969 74.792969 95.726562 74.734375 96.050781 L 69.152344 96.050781 C 69.191406 96.832031 69.390625 97.421875 69.753906 97.820312 C 70.125 98.214844 70.71875 98.414062 71.535156 98.414062 C 72.042969 98.414062 72.5 98.335938 72.902344 98.179688 C 73.304688 98.023438 73.613281 97.867188 73.824219 97.703125 Z M 71.164062 92.460938 C 70.53125 92.460938 70.0625 92.648438 69.753906 93.027344 C 69.453125 93.40625 69.269531 93.910156 69.210938 94.539062 L 72.667969 94.539062 C 72.71875 93.875 72.617188 93.359375 72.359375 93 C 72.109375 92.640625 71.710938 92.460938 71.164062 92.460938 Z M 83.179688 97.703125 L 83.984375 99.285156 C 83.609375 99.582031 83.105469 99.835938 82.464844 100.039062 C 81.824219 100.246094 81.148438 100.347656 80.429688 100.347656 C 78.925781 100.347656 77.828125 99.910156 77.132812 99.035156 C 76.441406 98.164062 76.09375 96.964844 76.09375 95.4375 C 76.09375 93.800781 76.484375 92.570312 77.265625 91.75 C 78.046875 90.933594 79.144531 90.523438 80.558594 90.523438 C 81.03125 90.523438 81.492188 90.585938 81.9375 90.710938 C 82.382812 90.832031 82.777344 91.039062 83.128906 91.324219 C 83.472656 91.609375 83.75 91.992188 83.964844 92.476562 C 84.175781 92.960938 84.277344 93.5625 84.277344 94.285156 C 84.277344 94.542969 84.261719 94.824219 84.234375 95.121094 C 84.203125 95.417969 84.15625 95.726562 84.09375 96.050781 L 78.511719 96.050781 C 78.550781 96.832031 78.75 97.421875 79.117188 97.820312 C 79.480469 98.214844 80.074219 98.414062 80.894531 98.414062 C 81.402344 98.414062 81.859375 98.335938 82.261719 98.179688 C 82.664062 98.023438 82.972656 97.867188 83.179688 97.703125 Z M 80.523438 92.460938 C 79.886719 92.460938 79.417969 92.648438 79.117188 93.027344 C 78.8125 93.40625 78.632812 93.910156 78.570312 94.539062 L 82.027344 94.539062 C 82.078125 93.875 81.976562 93.359375 81.722656 93 C 81.464844 92.640625 81.066406 92.460938 80.523438 92.460938 Z M 80.523438 92.460938 "/>
</g>
</svg>
