<?xml version="1.0" encoding="UTF-8" standalone="no"?>
<svg
   viewBox="0 0 50 50.000001"
   version="1.1"
   id="svg853"
   width="50"
   height="50"
   xmlns="http://www.w3.org/2000/svg"
   xmlns:svg="http://www.w3.org/2000/svg">
  <defs
     id="defs857" />
  <!--! Font Awesome Pro 6.2.0 by @fontawesome - https://fontawesome.com License - https://fontawesome.com/license (Commercial License) Copyright 2022 Fonticons, Inc. -->
  <path
     d="M 25,50 C 38.808595,50 50,38.808591 50,24.999998 50,11.191409 38.808595,0 25,0 11.191405,0 0,11.191409 0,24.999998 0,38.808591 11.191405,50 25,50 Z M 36.816405,26.464842 c 0.91797,0.91797 0.91797,2.402345 0,3.310545 -0.91797,0.908205 -2.40234,0.91797 -3.310545,0 l -8.496095,-8.496089 -8.496095,8.496089 c -0.917965,0.91797 -2.40234,0.91797 -3.310545,0 -0.908205,-0.917965 -0.91797,-2.40234 0,-3.310545 l 10.13672,-10.156249 c 0.917965,-0.91797 2.40234,-0.91797 3.310545,0 z"
     id="path851"
     style="opacity:1;fill:#ffffff;fill-opacity:1;stroke-width:0.0976557" />
</svg>
