<?xml version="1.0" encoding="UTF-8"?>
<svg xmlns="http://www.w3.org/2000/svg" xmlns:xlink="http://www.w3.org/1999/xlink" viewBox="0 0 32 32" width="32px" height="32px">
<g id="surface6792689">
<path style=" stroke:none;fill-rule:nonzero;fill:rgb(100%,100%,100%);fill-opacity:1;" d="M 16 32 C 7.164062 32 0 24.835938 0 16 C 0 7.164062 7.164062 0 16 0 C 24.835938 0 32 7.164062 32 16 C 32 24.835938 24.835938 32 16 32 Z M 16 32 "/>
<path style=" stroke:none;fill-rule:nonzero;fill:rgb(0%,0%,0%);fill-opacity:1;" d="M 25.046875 10.390625 C 24.382812 10.683594 23.667969 10.882812 22.914062 10.972656 C 23.679688 10.511719 24.269531 9.785156 24.546875 8.921875 C 23.832031 9.34375 23.035156 9.652344 22.191406 9.820312 C 21.511719 9.101562 20.546875 8.644531 19.480469 8.644531 C 17.429688 8.644531 15.765625 10.308594 15.765625 12.359375 C 15.765625 12.652344 15.800781 12.933594 15.863281 13.207031 C 12.777344 13.050781 10.042969 11.574219 8.214844 9.328125 C 7.890625 9.875 7.710938 10.511719 7.710938 11.195312 C 7.710938 12.480469 8.363281 13.617188 9.363281 14.28125 C 8.753906 14.261719 8.179688 14.097656 7.679688 13.816406 C 7.679688 13.835938 7.679688 13.851562 7.679688 13.863281 C 7.679688 15.664062 8.957031 17.167969 10.65625 17.503906 C 10.34375 17.589844 10.019531 17.636719 9.679688 17.636719 C 9.441406 17.636719 9.207031 17.613281 8.980469 17.570312 C 9.453125 19.046875 10.824219 20.117188 12.449219 20.148438 C 11.179688 21.144531 9.578125 21.738281 7.839844 21.738281 C 7.539062 21.738281 7.246094 21.71875 6.953125 21.683594 C 8.597656 22.738281 10.546875 23.355469 12.644531 23.355469 C 19.472656 23.355469 23.207031 17.695312 23.207031 12.789062 C 23.207031 12.628906 23.199219 12.46875 23.195312 12.308594 C 23.917969 11.785156 24.550781 11.132812 25.046875 10.390625 Z M 25.046875 10.390625 "/>
</g>
</svg>
