<?xml version="1.0" encoding="UTF-8"?>
<svg xmlns="http://www.w3.org/2000/svg" xmlns:xlink="http://www.w3.org/1999/xlink" viewBox="0 0 32 32" width="32px" height="32px">
<g id="surface6786660">
<path style=" stroke:none;fill-rule:nonzero;fill:rgb(100%,100%,100%);fill-opacity:1;" d="M 16 32 C 7.164062 32 0 24.835938 0 16 C 0 7.164062 7.164062 0 16 0 C 24.835938 0 32 7.164062 32 16 C 32 24.835938 24.835938 32 16 32 Z M 16 32 "/>
<path style=" stroke:none;fill-rule:nonzero;fill:rgb(0%,0%,0%);fill-opacity:1;" d="M 16 8.601562 C 13.214844 8.601562 10.75 8.890625 9.246094 9.109375 C 8.003906 9.289062 7 10.226562 6.773438 11.46875 C 6.578125 12.523438 6.378906 14.066406 6.378906 16 C 6.378906 17.933594 6.578125 19.476562 6.773438 20.53125 C 7 21.773438 8.003906 22.710938 9.246094 22.890625 C 10.757812 23.109375 13.226562 23.398438 16 23.398438 C 18.773438 23.398438 21.242188 23.109375 22.753906 22.890625 C 23.996094 22.710938 25 21.773438 25.226562 20.53125 C 25.421875 19.472656 25.621094 17.929688 25.621094 16 C 25.621094 14.070312 25.421875 12.527344 25.226562 11.46875 C 25 10.226562 23.996094 9.289062 22.753906 9.109375 C 21.25 8.890625 18.785156 8.601562 16 8.601562 Z M 16 10.078125 C 18.6875 10.078125 21.089844 10.355469 22.542969 10.566406 C 23.167969 10.65625 23.65625 11.128906 23.769531 11.746094 C 23.949219 12.722656 24.140625 14.171875 24.140625 16 C 24.140625 17.828125 23.949219 19.277344 23.769531 20.253906 C 23.65625 20.871094 23.171875 21.34375 22.542969 21.433594 C 21.085938 21.644531 18.671875 21.921875 16 21.921875 C 13.328125 21.921875 10.914062 21.644531 9.457031 21.433594 C 8.832031 21.34375 8.34375 20.871094 8.230469 20.253906 C 8.050781 19.277344 7.859375 17.832031 7.859375 16 C 7.859375 14.164062 8.050781 12.722656 8.230469 11.746094 C 8.34375 11.128906 8.828125 10.65625 9.457031 10.566406 C 10.90625 10.355469 13.3125 10.078125 16 10.078125 Z M 13.78125 11.769531 L 13.78125 20.230469 L 14.890625 19.609375 L 20.070312 16.648438 L 21.179688 16 L 20.070312 15.351562 L 14.890625 12.390625 Z M 15.261719 14.3125 L 18.195312 16 L 15.261719 17.6875 Z M 15.261719 14.3125 "/>
</g>
</svg>
